<svg xmlns="http://www.w3.org/2000/svg" viewBox="-102.0 -104.0 242.0 218.0" role="img" aria-labelledby="title desc">
  <title id="title">Evil Cube Z piece</title>
  <desc id="desc">Isometric rendering of the Z brick made from 5 unit cubes.</desc>
  <rect x="-102.0" y="-104.0" width="242.0" height="218.0" rx="8" fill="#fafafa" />
  <text x="-96.0" y="-80.0" font-family="Arial, Helvetica, sans-serif" font-size="20" font-weight="700" fill="#1f1f1f">Z piece</text>
  <polygon points="-38.0,-20.0 0.0,2.0 -38.0,24.0 -76.0,2.0" fill="#40bdbd" stroke="#242424" stroke-width="1.4" stroke-linejoin="round" />
  <polygon points="-76.0,44.0 -38.0,66.0 -38.0,24.0 -76.0,2.0" fill="#008989" stroke="#242424" stroke-width="1.4" stroke-linejoin="round" />
  <polygon points="38.0,-62.0 76.0,-40.0 38.0,-18.0 0.0,-40.0" fill="#40bdbd" stroke="#242424" stroke-width="1.4" stroke-linejoin="round" />
  <polygon points="76.0,2.0 38.0,24.0 38.0,-18.0 76.0,-40.0" fill="#00a7a7" stroke="#242424" stroke-width="1.4" stroke-linejoin="round" />
  <polygon points="0.0,2.0 38.0,24.0 38.0,-18.0 0.0,-40.0" fill="#008989" stroke="#242424" stroke-width="1.4" stroke-linejoin="round" />
  <polygon points="0.0,2.0 38.0,24.0 0.0,46.0 -38.0,24.0" fill="#40bdbd" stroke="#242424" stroke-width="1.4" stroke-linejoin="round" />
  <polygon points="38.0,66.0 0.0,88.0 0.0,46.0 38.0,24.0" fill="#00a7a7" stroke="#242424" stroke-width="1.4" stroke-linejoin="round" />
  <polygon points="-38.0,66.0 0.0,88.0 0.0,46.0 -38.0,24.0" fill="#008989" stroke="#242424" stroke-width="1.4" stroke-linejoin="round" />
  <polygon points="76.0,2.0 114.0,24.0 76.0,46.0 38.0,24.0" fill="#40bdbd" stroke="#242424" stroke-width="1.4" stroke-linejoin="round" />
  <polygon points="114.0,66.0 76.0,88.0 76.0,46.0 114.0,24.0" fill="#00a7a7" stroke="#242424" stroke-width="1.4" stroke-linejoin="round" />
  <polygon points="38.0,66.0 76.0,88.0 76.0,46.0 38.0,24.0" fill="#008989" stroke="#242424" stroke-width="1.4" stroke-linejoin="round" />
</svg>
